HIERARCHY
ROOT Hips
{
	OFFSET 0.000000 0.000000 0.000000 
	CHANNELS 6 Xposition Yposition Zposition Yrotation Zrotation Xrotation 
	JOINT Lumbar
	{
		OFFSET 0.000000 0.000000 0.000000 
		CHANNELS 3 Zrotation Xrotation Yrotation
		JOINT Neck
		{
			OFFSET 0.000000 0.445665 0.000000 
			CHANNELS 3 Zrotation Xrotation Yrotation
			End Site
			{
				OFFSET 0.000000 0.227535 0.000000 
			}
		}
		JOINT RightShoulder
		{
			OFFSET 0.019635 0.377685 0.194865 
			CHANNELS 3 Zrotation Xrotation Yrotation
			JOINT RightElbow
			{
				OFFSET 0.000000 -0.243375 0.000000 
				CHANNELS 2 Zrotation Yrotation
				JOINT RightWrist
				{
					OFFSET 0.000000 -0.264825 0.000000 
					CHANNELS 2 Zrotation Xrotation
					End Site
					{
						OFFSET 0.006600 -0.176220 0.000990 
					}
				}
			}
		}
		JOINT LeftShoulder
		{
			OFFSET 0.019635 0.377685 -0.194865 
			CHANNELS 3 Zrotation Xrotation Yrotation
			JOINT LeftElbow
			{
				OFFSET 0.000000 -0.243375 0.000000 
				CHANNELS 2 Zrotation Yrotation
				JOINT LeftWrist
				{
					OFFSET 0.000000 -0.264825 0.000000 
					CHANNELS 2 Zrotation Xrotation
					End Site
					{
						OFFSET 0.006600 -0.176220 -0.000990 
					}
				}
			}
		}
	}
	JOINT RightHip
	{
		OFFSET 0.052140 -0.069960 0.075570 
		CHANNELS 3 Zrotation Xrotation Yrotation
		JOINT RightKnee
		{
			OFFSET 0.000000 -0.402270 0.000000 
			CHANNELS 1 Zrotation
			JOINT RightAnkle
			{
				OFFSET 0.000000 -0.404085 0.000000 
				CHANNELS 3 Zrotation Xrotation Yrotation
				End Site
				{
					OFFSET 0.204105 -0.089430 0.008415 
				}
			}
		}
	}
	JOINT LeftHip
	{
		OFFSET 0.052140 -0.069960 -0.075570 
		CHANNELS 3 Zrotation Xrotation Yrotation
		JOINT LeftKnee
		{
			OFFSET 0.000000 -0.402270 0.000000 
			CHANNELS 1 Zrotation
			JOINT LeftAnkle
			{
				OFFSET 0.000000 -0.404085 0.000000 
				CHANNELS 3 Zrotation Xrotation Yrotation
				End Site
				{
					OFFSET 0.204105 -0.089430 -0.008415 
				}
			}
		}
	}
}
MOTION
Frames: 11
Frame Time: 0.02
-0.057 -0.02021 0.01624 18.03814 -21.67973 -4.67966 36.58956 3.17317 5.26556 -9.09764 -2.77662 -2.1136 39.9348 -61.70987 39.16461 48.25927 84.24815 7.05032 -1.79868 -1.05746 57.97331 -3.90047 55.76094 -87.01306 11.38547 1.55814 38.0302 -0.47573 -14.76959 -24.86534 -6.04167 -2.09265 -3.22796 53.37355 10.73837 6.91154 -42.83132 -7.12579 1.1858 2.84527
-0.05587 -0.01982 0.01572 17.92554 -21.56745 -4.58143 36.27614 3.07148 5.54277 -9.03867 -3.14209 -2.11382 45.11856 -61.71131 42.48637 46.81131 84.68495 7.42133 -1.82806 0.8468 58.70239 -5.54139 55.05907 -86.63532 11.39891 1.75293 37.77911 -0.59308 -14.92724 -24.83306 -6.0292 -2.05759 -3.21075 53.8897 11.01863 6.56754 -42.83329 -7.17041 1.18847 2.84782
-0.05457 -0.01918 0.01465 17.81647 -21.52893 -4.43846 36.03215 2.91952 5.83391 -8.95648 -3.53165 -2.11403 50.69554 -61.27561 45.75879 45.42861 85.05564 8.12184 -1.93341 3.10921 59.36126 -7.35328 54.55885 -86.35043 11.34679 1.94081 37.59106 -0.80266 -15.16605 -24.79818 -6.03299 -2.01648 -3.19135 54.34089 11.19439 6.12378 -42.23073 -7.22638 1.22022 2.86434
-0.05331 -0.01866 0.01378 17.70699 -21.46326 -4.32027 35.7626 2.79175 6.11303 -8.88379 -3.91112 -2.11424 56.05375 -60.99309 48.9682 44.00135 85.44898 8.68345 -2.00542 5.24932 60.0396 -9.1183 53.96532 -86.01429 11.33075 2.14302 37.37932 -0.9641 -15.3435 -24.76576 -6.02868 -1.98049 -3.17419 54.82097 11.42127 5.73056 -41.8801 -7.27665 1.23512 2.87283
-0.05219 -0.0181 0.01312 17.59234 -21.36901 -4.1841 35.46682 2.65899 6.41767 -8.81581 -4.28578 -2.11447 61.61769 -60.89801 52.55996 42.63525 85.87998 9.20065 -2.07111 7.23928 60.77767 -10.77098 53.38417 -85.70939 11.2875 2.30423 37.14435 -1.14975 -15.61892 -24.72746 -6.02685 -1.93478 -3.15192 55.30811 11.63836 5.31729 -41.6296 -7.32905 1.26417 2.88786
-0.05075 -0.01757 0.01188 17.48891 -21.35184 -4.07494 35.24198 2.52447 6.67186 -8.73218 -4.67618 -2.11465 66.82865 -60.31133 55.33717 41.16185 86.21416 9.88708 -2.16848 9.61672 61.37003 -12.6887 52.82661 -85.3584 11.2866 2.54487 36.97223 -1.30835 -15.71498 -24.70061 -6.02393 -1.9075 -3.13956 55.76169 11.8478 4.92087 -41.02971 -7.37973 1.27136 2.8929
-0.04856 -0.01719 0.00928 17.42095 -21.5379 -4.04514 35.2032 2.39647 6.78342 -8.61342 -5.10984 -2.1147 71.01381 -58.46323 55.85252 39.32869 86.29848 10.97275 -2.33464 13.00555 61.59919 -15.32983 52.24136 -84.93078 11.40633 3.03078 36.97631 -1.3614 -15.25326 -24.71042 -6.01373 -1.93594 -3.15709 56.16032 12.07504 4.60236 -39.56093 -7.42334 1.20806 2.86563
-0.04605 -0.01686 0.0061 17.36324 -21.79824 -4.04496 35.2326 2.26835 6.84346 -8.47909 -5.55775 -2.1147 74.81621 -56.13824 55.55071 37.39446 86.28571 12.21496 -2.52992 16.76358 61.67882 -18.22317 51.67977 -84.44352 11.57307 3.59196 37.03926 -1.38583 -14.61579 -24.73122 -6.00201 -1.98258 -3.18433 56.52341 12.295 4.30357 -37.77017 -7.46477 1.12243 2.82811
-0.04366 -0.01651 0.00312 17.29739 -22.01879 -4.0351 35.22588 2.14099 6.92682 -8.35052 -5.99558 -2.11472 78.76086 -54.03902 55.63616 35.53641 86.31671 13.37724 -2.71254 20.33148 61.81243 -20.97746 51.13434 -83.93521 11.72649 4.10194 37.06316 -1.4289 -14.08773 -24.74413 -5.99117 -2.01862 -3.20577 56.88754 12.50904 3.9899 -36.15932 -7.50693 1.04912 2.7962
-0.04138 -0.01616 0.00041 17.24636 -22.26536 -4.00796 35.24195 2.00957 7.01114 -8.22736 -6.4492 -2.11474 82.85753 -51.8855 55.65447 33.55021 86.35039 14.58822 -2.89675 24.00821 62.00474 -23.8424 50.48199 -83.62612 11.84419 4.68264 37.13853 -1.45114 -13.44025 -24.76881 -5.97994 -2.06401 -3.23287 57.31146 12.75881 3.69434 -34.38452 -7.55059 0.96769 2.7608
-0.0388 -0.0158 -0.003 17.16686 -22.47693 -4.02417 35.22746 1.8864 7.08097 -8.0887 -6.87327 -2.11476 86.53653 -49.73857 55.61755 31.80954 86.35201 15.73052 -3.08185 27.53912 62.03757 -26.53286 50.05596 -82.8956 12.04765 5.13509 37.1231 -1.50906 -12.99558 -24.77205 -5.96913 -2.09464 -3.25069 57.60549 12.93335 3.37136 -32.88415 -7.59049 0.89744 2.73002
